{
  "asset": {
    "generator": "Khronos glTF Blender I/O v3.3.32",
    "version": "2.0"
  },
  "scene": 0,
  "scenes": [
    {
      "name": "Scene",
      "nodes": [
        0
      ]
    }
  ],
  "nodes": [
    {
      "mesh": 0,
      "name": "sphere_gltf"
    }
  ],
  "materials": [
    {
      "doubleSided": true,
      "name": "mud_forest",
      "normalTexture": {
        "index": 0
      },
      "pbrMetallicRoughness": {
        "baseColorTexture": {
          "index": 1
        },
        "metallicFactor": 0,
        "metallicRoughnessTexture": {
          "index": 2
        }
      }
    }
  ],
  "meshes": [
    {
      "name": "Sphere.001",
      "primitives": [
        {
          "attributes": {
            "POSITION": 0,
            "NORMAL": 1,
            "TEXCOORD_0": 2
          },
          "indices": 3,
          "material": 0
        }
      ]
    }
  ],
  "textures": [
    {
      "sampler": 0,
      "source": 0
    },
    {
      "sampler": 0,
      "source": 1
    },
    {
      "sampler": 0,
      "source": 2
    }
  ],
  "images": [
    {
      "mimeType": "image/jpeg",
      "name": "mud_forest_nor_gl",
      "uri": "textures/mud_forest_nor_gl_4k.jpg"
    },
    {
      "mimeType": "image/jpeg",
      "name": "mud_forest_diff",
      "uri": "textures/mud_forest_diff_4k.jpg"
    },
    {
      "mimeType": "image/jpeg",
      "name": "mud_forest_rough",
      "uri": "textures/mud_forest_arm_4k.jpg"
    }
  ],
  "accessors": [
    {
      "bufferView": 0,
      "componentType": 5126,
      "count": 53926,
      "max": [
        1.1853400468826294,
        1.1850281953811646,
        1.1795614957809448
      ],
      "min": [
        -1.1853399276733398,
        -1.184177041053772,
        -1.1795579195022583
      ],
      "type": "VEC3"
    },
    {
      "bufferView": 1,
      "componentType": 5126,
      "count": 53926,
      "type": "VEC3"
    },
    {
      "bufferView": 2,
      "componentType": 5126,
      "count": 53926,
      "type": "VEC2"
    },
    {
      "bufferView": 3,
      "componentType": 5123,
      "count": 322170,
      "type": "SCALAR"
    }
  ],
  "bufferViews": [
    {
      "buffer": 0,
      "byteLength": 647112,
      "byteOffset": 0,
      "target": 34962
    },
    {
      "buffer": 0,
      "byteLength": 647112,
      "byteOffset": 647112,
      "target": 34962
    },
    {
      "buffer": 0,
      "byteLength": 431408,
      "byteOffset": 1294224,
      "target": 34962
    },
    {
      "buffer": 0,
      "byteLength": 644340,
      "byteOffset": 1725632,
      "target": 34963
    }
  ],
  "samplers": [
    {
      "magFilter": 9729,
      "minFilter": 9987
    }
  ],
  "buffers": [
    {
      "byteLength": 2369972,
      "uri": "mud_forest.bin"
    }
  ]
}